<svg width="100%" height="100%" viewBox="0 0 42 11" version="1.1" xmlns="http://www.w3.org/2000/svg" xml:space="preserve" style="fill-rule:evenodd;clip-rule:evenodd;stroke-linejoin:round;stroke-miterlimit:2;">
    <path d="M6.987,0.303l0.522,-0l4.568,7.911l0,0l-0.983,1.677l-3.998,-0.001l0.405,0.699l-0.176,0l-0.405,-0.699l-4.959,-0l-0.003,-0l-0.254,-0.445l-0.315,-0l-0.907,-1.572l0,-0.001l0,-0l1.165,-2.018l1.077,-0.621l1.783,-3.088l-0.359,-0.621l0.859,-1.487l1.826,-0l0.154,0.266Zm-0.904,2.465l-3.154,5.448l3.019,-0l-0.349,-0.602l3.29,0.003l-2.806,-4.849Zm15.731,0.572l-2.108,0l-0,1.753l1.206,-0l0,0.408l-1.206,0l-0,2.199l-0.44,-0l0,-4.773l2.548,-0l-0,0.413Zm10.988,4.36l-0.445,-0l0,-4.773l0.445,-0l-0,4.773Zm-6.196,-0l-0.445,-0l0,-4.773l0.445,-0l-0,4.773Zm-1.345,-4.36l-2.108,0l0,1.753l1.206,-0l0,0.408l-1.206,0l0,2.199l-0.439,-0l-0,-4.773l2.547,-0l0,0.413Zm11.424,0l-1.267,0l-0,4.36l-0.445,-0l0,-4.36l-1.274,0l0,-0.413l2.986,-0l0,0.413Zm-8.738,4.36l-0.44,-0l-0,-4.773l0.473,-0l3.03,4.024l-0,-4.024l0.445,-0l-0,4.773l-0.434,-0l-3.074,-4.096l-0,4.096Zm11.598,-0l-0.449,-0l0,-1.168l-2.058,-3.605l0.506,-0l1.777,3.093l1.777,-3.093l0.506,-0l-2.059,3.605l0,1.168Zm-20.671,-0l-0.474,-0l-1.848,-4.166c-0.116,0.266 -1.241,2.825 -1.361,3.096c0.236,-0 2.253,0.02 2.368,0.021l0.184,0.401c-0.402,-0.003 -2.205,-0.008 -2.739,-0.008c-0.049,0.103 -0.254,0.557 -0.294,0.656l-0.473,-0l2.115,-4.773l0.406,-0l2.116,4.773Z" style="fill:#818182;"/>
</svg>
