<svg width="100%" height="100%" viewBox="0 0 34 13" version="1.1" xmlns="http://www.w3.org/2000/svg" xml:space="preserve" style="fill-rule:evenodd;clip-rule:evenodd;stroke-linejoin:round;stroke-miterlimit:2;">
    <g>
        <path d="M4.51,0.538l1.808,-0l0,8.369c-0.927,0.176 -1.608,0.246 -2.348,0.246c-2.207,0 -3.358,-0.998 -3.358,-2.911c0,-1.844 1.221,-3.041 3.112,-3.041c0.293,-0 0.516,0.023 0.786,0.094l0,-2.757l0,-0Zm0,4.212c-0.211,-0.07 -0.387,-0.094 -0.61,-0.094c-0.916,0 -1.444,0.564 -1.444,1.55c-0,0.963 0.504,1.491 1.432,1.491c0.199,0 0.364,-0.011 0.622,-0.046l0,-2.901Z" style="fill:#818182;fill-rule:nonzero;"/>
        <path d="M9.195,3.33l-0,4.191c-0,1.444 -0.106,2.137 -0.423,2.736c-0.294,0.575 -0.681,0.939 -1.479,1.338l-1.679,-0.798c0.798,-0.376 1.186,-0.704 1.432,-1.209c0.258,-0.517 0.341,-1.116 0.341,-2.689l-0,-3.569l1.808,-0Zm-1.808,-2.783l1.808,0l-0,1.855l-1.808,0l-0,-1.855Z" style="fill:#818182;fill-rule:nonzero;"/>
        <path d="M10.287,3.741c0.798,-0.376 1.561,-0.54 2.395,-0.54c0.928,-0 1.538,0.246 1.808,0.728c0.153,0.27 0.2,0.622 0.2,1.373l-0,3.675c-0.811,0.118 -1.832,0.2 -2.583,0.2c-1.515,-0 -2.196,-0.529 -2.196,-1.703c0,-1.268 0.904,-1.855 3.123,-2.043l0,-0.399c0,-0.329 -0.164,-0.446 -0.622,-0.446c-0.669,0 -1.421,0.188 -2.125,0.552l-0,-1.397l-0,-0Zm2.829,2.876c-1.197,0.118 -1.585,0.306 -1.585,0.775c0,0.352 0.223,0.517 0.717,0.517c0.27,-0 0.516,-0.024 0.868,-0.082l0,-1.21Z" style="fill:#818182;fill-rule:nonzero;"/>
        <path d="M15.57,3.612c1.069,-0.282 1.949,-0.411 2.842,-0.411c0.927,-0 1.596,0.211 1.996,0.622c0.375,0.387 0.493,0.81 0.493,1.714l-0,3.546l-1.808,-0l-0,-3.475c-0,-0.693 -0.235,-0.952 -0.881,-0.952c-0.246,0 -0.47,0.024 -0.834,0.13l0,4.297l-1.808,-0l0,-5.471l0,-0Z" style="fill:#818182;fill-rule:nonzero;"/>
        <path d="M21.604,10.069c0.634,0.329 1.268,0.481 1.937,0.481c1.185,0 1.69,-0.481 1.69,-1.632l0,-0.035c-0.352,0.176 -0.704,0.247 -1.174,0.247c-1.585,-0 -2.595,-1.045 -2.595,-2.701c0,-2.054 1.492,-3.217 4.133,-3.217c0.775,0 1.491,0.082 2.36,0.258l-0.619,1.305c-0.481,-0.094 -0.038,-0.013 -0.402,-0.048l-0,0.188l0.023,0.763l0.012,0.986c0.012,0.247 0.012,0.493 0.023,0.74l0,0.493c0,1.55 -0.129,2.278 -0.516,2.876c-0.564,0.881 -1.538,1.315 -2.924,1.315c-0.704,0 -1.314,-0.105 -1.949,-0.352l0,-1.667l0.001,0Zm3.592,-5.401l-0.188,0c-0.352,-0.012 -0.763,0.082 -1.045,0.258c-0.434,0.247 -0.657,0.693 -0.657,1.327c-0,0.904 0.446,1.421 1.245,1.421c0.246,-0 0.446,-0.047 0.68,-0.118l0,-0.622c0,-0.211 -0.011,-0.446 -0.011,-0.692l-0.012,-0.834l-0.012,-0.599l0,-0.141Z" style="fill:#818182;fill-rule:nonzero;"/>
        <path d="M30.762,3.177c1.808,0 2.912,1.139 2.912,2.982c-0,1.891 -1.151,3.076 -2.982,3.076c-1.808,0 -2.924,-1.138 -2.924,-2.97c0,-1.902 1.151,-3.088 2.994,-3.088Zm-0.035,4.603c0.693,-0 1.104,-0.576 1.104,-1.574c-0,-0.986 -0.4,-1.573 -1.092,-1.573c-0.716,-0 -1.128,0.575 -1.128,1.573c0.001,0.998 0.412,1.574 1.116,1.574Z" style="fill:#818182;fill-rule:nonzero;"/>
    </g>
</svg>
