<svg width="100%" height="100%" viewBox="0 0 9 10" version="1.1" xmlns="http://www.w3.org/2000/svg" xml:space="preserve" style="fill-rule:evenodd;clip-rule:evenodd;stroke-linejoin:round;stroke-miterlimit:2;">
    <g>
        <path d="M1.165,8.918l-0.724,-8.128l7.969,-0l-0.725,8.128l-3.269,0.918" style="fill:#818182;fill-rule:nonzero;"/>
        <path d="M3.02,3.44l3.817,-0l0.018,-0.212l0.053,-0.512l0.017,-0.266l-5,0l0.017,0.266l0.248,2.756l3.463,0l-0.124,1.29l-1.113,0.3l-1.113,-0.3l-0.071,-0.795l-0.989,-0l0.124,1.572l2.049,0.566l0.018,-0l-0,-0.005l2.032,-0.561l0.018,-0.176l0.229,-2.633l0.036,-0.265l-3.64,-0l-0.089,-1.025Z" style="fill:#fff;fill-rule:nonzero;"/>
    </g>
</svg>
