<svg width="100%" height="100%" viewBox="0 0 11 11" version="1.1" xmlns="http://www.w3.org/2000/svg" xml:space="preserve" style="fill-rule:evenodd;clip-rule:evenodd;stroke-linejoin:round;stroke-miterlimit:2;">
    <g>
        <rect x="0.6" y="0.397" width="9.833" height="9.833" style="fill:#818182;fill-rule:nonzero;"/>
        <g>
            <path d="M3.185,8.614l0.753,-0.456c0.145,0.258 0.277,0.475 0.594,0.475c0.304,0 0.495,-0.118 0.495,-0.58l-0,-3.142l0.924,-0l-0,3.155c-0,0.957 -0.561,1.392 -1.38,1.392c-0.739,0 -1.168,-0.383 -1.386,-0.845" style="fill:#fff;fill-rule:nonzero;"/>
            <path d="M6.453,8.515l0.752,-0.436c0.198,0.323 0.456,0.561 0.911,0.561c0.383,-0 0.627,-0.191 0.627,-0.456c0,-0.316 -0.251,-0.429 -0.673,-0.613l-0.231,-0.099c-0.667,-0.284 -1.109,-0.641 -1.109,-1.393c-0,-0.693 0.528,-1.221 1.353,-1.221c0.587,-0 1.01,0.205 1.313,0.739l-0.719,0.462c-0.158,-0.284 -0.33,-0.396 -0.594,-0.396c-0.271,0 -0.442,0.172 -0.442,0.396c-0,0.277 0.171,0.39 0.567,0.561l0.231,0.099c0.786,0.337 1.228,0.68 1.228,1.452c0,0.832 -0.653,1.287 -1.531,1.287c-0.858,0 -1.413,-0.409 -1.683,-0.943" style="fill:#fff;fill-rule:nonzero;"/>
        </g>
    </g>
</svg>
