<svg width="100%" height="100%" viewBox="0 0 24 15" version="1.1" xmlns="http://www.w3.org/2000/svg" xml:space="preserve" style="fill-rule:evenodd;clip-rule:evenodd;stroke-linejoin:round;stroke-miterlimit:2;">
    <path d="M5.885,3.972l4.358,-0l0,0.347l-3.958,-0l-0,2.612l3.722,0l-0,0.348l-3.722,-0l-0,2.868l4.003,-0l0,0.347l-4.403,-0l0,-6.522Zm4.748,-0l0.463,-0l2.052,2.868l2.097,-2.868l2.853,-3.644l-4.686,6.813l2.415,3.353l-0.482,-0l-2.197,-3.051l-2.206,3.051l-0.472,-0l2.433,-3.353l-2.269,-3.169l-0.001,-0Zm5.366,0.347l0,-0.347l4.966,-0l0,0.347l-2.288,-0l0,6.175l-0.399,-0l-0,-6.175l-2.279,-0Zm-15.565,-0.347l0.499,-0l6.885,10.326l-2.845,-3.804l-4.122,-6.029l-0.018,6.029l-0.399,-0l-0,-6.522Zm20.491,6.07c-0.082,-0 -0.143,-0.063 -0.143,-0.145c-0,-0.082 0.061,-0.146 0.143,-0.146c0.082,0 0.143,0.064 0.143,0.146c-0,0.082 -0.061,0.145 -0.143,0.145l-0,-0Zm0.392,-0.382l0.214,-0c0.003,0.116 0.088,0.194 0.212,0.194c0.139,-0 0.218,-0.084 0.218,-0.241l-0,-0.994l0.217,-0l0,0.995c0,0.283 -0.163,0.446 -0.433,0.446c-0.254,-0 -0.428,-0.158 -0.428,-0.4l0,-0Zm1.146,-0.013l0.216,0c0.018,0.134 0.148,0.219 0.336,0.219c0.175,-0 0.303,-0.091 0.303,-0.216c-0,-0.107 -0.082,-0.172 -0.267,-0.215l-0.181,-0.044c-0.254,-0.06 -0.369,-0.183 -0.369,-0.389c-0,-0.251 0.204,-0.418 0.51,-0.418c0.284,0 0.493,0.167 0.505,0.404l-0.212,-0c-0.02,-0.13 -0.133,-0.211 -0.296,-0.211c-0.172,0 -0.287,0.083 -0.287,0.21c0,0.1 0.074,0.158 0.257,0.201l0.154,0.038c0.288,0.067 0.406,0.184 0.406,0.396c0,0.269 -0.208,0.438 -0.54,0.438c-0.311,-0 -0.52,-0.161 -0.535,-0.413l-0,0Z" style="fill:#818182;fill-rule:nonzero;"/>
</svg>
