<svg width="100%" height="100%" viewBox="0 0 38 11" version="1.1" xmlns="http://www.w3.org/2000/svg" xml:space="preserve" style="fill-rule:evenodd;clip-rule:evenodd;stroke-linejoin:round;stroke-miterlimit:2;">
    <g>
        <g>
            <path id="path46" d="M15.486,5.388c0,-1.204 -0.343,-1.823 -1.03,-1.856c-0.273,-0.013 -0.54,0.03 -0.799,0.131c-0.207,0.074 -0.347,0.147 -0.42,0.222l-0,2.874c0.439,0.276 0.829,0.404 1.169,0.384c0.72,-0.048 1.08,-0.632 1.08,-1.755Zm0.848,0.05c-0,0.612 -0.144,1.119 -0.432,1.523c-0.322,0.457 -0.768,0.693 -1.338,0.706c-0.429,0.013 -0.872,-0.121 -1.327,-0.403l-0,2.612l-0.737,-0.263l-0,-5.799c0.121,-0.148 0.276,-0.275 0.465,-0.383c0.439,-0.256 0.971,-0.387 1.598,-0.394l0.011,0.011c0.573,-0.007 1.015,0.228 1.325,0.705c0.289,0.438 0.435,0.999 0.435,1.685Z" style="fill:#818182;fill-rule:nonzero;"/>
            <path id="path48" d="M20.836,7.152c0,0.821 -0.082,1.389 -0.246,1.705c-0.166,0.316 -0.48,0.568 -0.944,0.756c-0.377,0.149 -0.784,0.229 -1.221,0.243l-0.121,-0.464c0.444,-0.061 0.756,-0.121 0.938,-0.182c0.357,-0.121 0.602,-0.306 0.737,-0.554c0.108,-0.203 0.161,-0.589 0.161,-1.16l-0,-0.192c-0.504,0.229 -1.032,0.342 -1.584,0.342c-0.363,0 -0.683,-0.113 -0.959,-0.342c-0.309,-0.249 -0.464,-0.565 -0.464,-0.948l0,-3.066l0.737,-0.253l-0,3.087c-0,0.329 0.106,0.583 0.319,0.762c0.213,0.178 0.489,0.263 0.826,0.257c0.338,-0.008 0.7,-0.138 1.084,-0.394l0,-3.6l0.737,-0l0,4.003Z" style="fill:#818182;fill-rule:nonzero;"/>
            <path id="path50" d="M23.712,7.626c-0.088,0.008 -0.168,0.011 -0.242,0.011c-0.417,-0 -0.742,-0.099 -0.974,-0.298c-0.231,-0.2 -0.348,-0.474 -0.348,-0.825l0,-2.902l-0.504,0l-0,-0.463l0.504,-0l0,-1.231l0.736,-0.262l0,1.493l0.828,-0l0,0.463l-0.828,0l0,2.882c0,0.276 0.075,0.472 0.223,0.587c0.127,0.094 0.33,0.148 0.605,0.162l0,0.383Z" style="fill:#818182;fill-rule:nonzero;"/>
            <path id="path52" d="M28.173,7.566l-0.737,-0l0,-2.844c0,-0.289 -0.068,-0.538 -0.202,-0.746c-0.156,-0.236 -0.372,-0.353 -0.649,-0.353c-0.338,-0 -0.76,0.178 -1.267,0.534l-0,3.409l-0.737,-0l0,-6.798l0.737,-0.232l-0,3.096c0.471,-0.342 0.985,-0.514 1.543,-0.514c0.391,0 0.707,0.131 0.948,0.393c0.243,0.262 0.364,0.589 0.364,0.979l-0,3.076Z" style="fill:#818182;fill-rule:nonzero;"/>
            <path id="path54" d="M32.089,5.272c-0,-0.463 -0.088,-0.845 -0.263,-1.147c-0.208,-0.369 -0.531,-0.563 -0.968,-0.583c-0.808,0.047 -1.211,0.626 -1.211,1.735c0,0.508 0.084,0.933 0.253,1.274c0.216,0.434 0.54,0.649 0.972,0.642c0.811,-0.007 1.217,-0.647 1.217,-1.921Zm0.807,0.005c-0,0.658 -0.169,1.206 -0.505,1.644c-0.37,0.49 -0.881,0.736 -1.533,0.736c-0.647,-0 -1.15,-0.246 -1.514,-0.736c-0.33,-0.438 -0.494,-0.986 -0.494,-1.644c0,-0.619 0.178,-1.14 0.534,-1.564c0.377,-0.45 0.872,-0.676 1.484,-0.676c0.611,0 1.109,0.226 1.493,0.676c0.356,0.424 0.535,0.945 0.535,1.564Z" style="fill:#818182;fill-rule:nonzero;"/>
            <path id="path56" d="M37.119,7.566l-0.736,-0l-0,-3.005c-0,-0.33 -0.1,-0.587 -0.298,-0.772c-0.198,-0.185 -0.463,-0.274 -0.792,-0.267c-0.35,0.006 -0.683,0.121 -0.999,0.342l0,3.702l-0.737,-0l0,-3.793c0.424,-0.308 0.814,-0.51 1.171,-0.604c0.336,-0.088 0.633,-0.132 0.888,-0.132c0.175,0 0.339,0.017 0.494,0.051c0.29,0.067 0.525,0.191 0.706,0.373c0.203,0.202 0.303,0.444 0.303,0.727l0,3.378Z" style="fill:#818182;fill-rule:nonzero;"/>
        </g>
        <path id="path1948" d="M5.223,0.796c-0.379,0.001 -0.741,0.034 -1.059,0.09c-0.938,0.166 -1.109,0.513 -1.109,1.153l0,0.845l2.218,-0l-0,0.281l-3.05,0c-0.644,0 -1.209,0.388 -1.385,1.125c-0.204,0.844 -0.213,1.371 -0,2.253c0.158,0.656 0.534,1.124 1.178,1.124l0.763,0l-0,-1.013c-0,-0.732 0.633,-1.377 1.385,-1.377l2.215,-0c0.616,-0 1.108,-0.508 1.108,-1.127l0,-2.111c0,-0.601 -0.507,-1.053 -1.108,-1.153c-0.381,-0.063 -0.776,-0.092 -1.156,-0.09Zm-1.199,0.679c0.229,0 0.416,0.19 0.416,0.424c0,0.233 -0.187,0.421 -0.416,0.421c-0.229,0 -0.416,-0.188 -0.416,-0.421c0,-0.234 0.187,-0.424 0.416,-0.424Z" style="fill:#818182;fill-rule:nonzero;"/>
        <path id="path1950" d="M7.764,3.165l-0,0.985c-0,0.763 -0.647,1.406 -1.385,1.406l-2.215,-0c-0.607,-0 -1.109,0.519 -1.109,1.127l0,2.111c0,0.601 0.523,0.954 1.109,1.127c0.702,0.206 1.375,0.243 2.215,-0c0.558,-0.162 1.108,-0.487 1.108,-1.127l0,-0.845l-2.214,-0l-0,-0.282l3.323,0c0.644,0 0.884,-0.449 1.109,-1.124c0.231,-0.695 0.221,-1.362 -0,-2.253c-0.16,-0.642 -0.464,-1.125 -1.109,-1.125l-0.832,0Zm-1.246,5.347c0.23,0 0.416,0.189 0.416,0.422c0,0.233 -0.186,0.423 -0.416,0.423c-0.229,0 -0.416,-0.19 -0.416,-0.423c0,-0.233 0.187,-0.422 0.416,-0.422Z" style="fill:#818182;fill-rule:nonzero;"/>
    </g>
</svg>
