<svg width="100%" height="100%" viewBox="0 0 15 14" version="1.1" xmlns="http://www.w3.org/2000/svg" xml:space="preserve" style="fill-rule:evenodd;clip-rule:evenodd;">
    <g>
        <circle cx="7.51" cy="6.802" r="1.113" style="fill:#818182;"/>
        <g>
            <path d="M7.51,4.54c1.494,-0 2.882,0.214 3.928,0.574c1.261,0.434 2.036,1.092 2.036,1.688c-0,0.621 -0.822,1.32 -2.176,1.768c-1.023,0.339 -2.37,0.516 -3.788,0.516c-1.454,0 -2.83,-0.166 -3.866,-0.52c-1.309,-0.447 -2.098,-1.155 -2.098,-1.764c0,-0.591 0.74,-1.244 1.983,-1.677c1.051,-0.366 2.472,-0.585 3.981,-0.585l0,-0Z" style="fill:none;stroke:#818182;stroke-width:0.53px;"/>
            <path d="M5.541,5.677c0.746,-1.294 1.625,-2.389 2.46,-3.115c1.006,-0.875 1.963,-1.218 2.479,-0.921c0.537,0.31 0.732,1.371 0.445,2.768c-0.218,1.056 -0.737,2.311 -1.446,3.54c-0.726,1.259 -1.558,2.369 -2.381,3.088c-1.042,0.911 -2.049,1.241 -2.577,0.936c-0.512,-0.294 -0.707,-1.262 -0.462,-2.555c0.208,-1.093 0.728,-2.434 1.482,-3.741l-0,0Z" style="fill:none;stroke:#818182;stroke-width:0.53px;"/>
            <path d="M5.543,7.952c-0.749,-1.293 -1.258,-2.601 -1.471,-3.687c-0.256,-1.309 -0.075,-2.309 0.441,-2.608c0.537,-0.311 1.553,0.05 2.62,0.997c0.806,0.716 1.634,1.793 2.344,3.02c0.729,1.258 1.275,2.533 1.487,3.606c0.269,1.357 0.051,2.395 -0.476,2.7c-0.511,0.296 -1.447,-0.018 -2.445,-0.876c-0.843,-0.726 -1.745,-1.847 -2.5,-3.152l-0,-0Z" style="fill:none;stroke:#818182;stroke-width:0.53px;"/>
        </g>
    </g>
</svg>
