<svg width="100%" height="100%" viewBox="0 0 18 14" version="1.1" xmlns="http://www.w3.org/2000/svg" xml:space="preserve" style="fill-rule:evenodd;clip-rule:evenodd;stroke-linejoin:round;stroke-miterlimit:2;">
    <g>
        <path d="M12.439,10.575c-0.054,-0.038 -0.045,-0.162 0.133,-0.549c0.069,-0.152 0.229,-0.408 0.505,-0.652c0.032,0.1 0.052,0.197 0.051,0.286c-0.003,0.599 -0.431,0.823 -0.689,0.915Zm-2.274,0.519c-0.072,0.038 -0.139,0.061 -0.169,0.043c-0.023,-0.013 0.029,-0.063 0.029,-0.063c0,-0 0.37,-0.397 0.515,-0.578c0.085,-0.106 0.183,-0.23 0.29,-0.37c0.001,0.014 0.001,0.028 0.001,0.041c-0.001,0.476 -0.461,0.798 -0.666,0.927Zm-2.951,-1.409c-0.171,0.417 -0.529,1.482 -0.746,1.425c-0.187,-0.049 -0.301,-0.859 -0.038,-1.656c0.133,-0.401 0.416,-0.88 0.582,-1.066c0.268,-0.3 0.563,-0.398 0.634,-0.276c0.091,0.154 -0.325,1.312 -0.432,1.573Zm-3.573,2.429c-0.49,0.535 -1.176,0.737 -1.469,0.567c-0.318,-0.184 -0.192,-0.972 0.41,-1.539c0.367,-0.346 0.84,-0.665 1.154,-0.861c0.072,-0.043 0.177,-0.106 0.304,-0.183c0.022,-0.012 0.034,-0.019 0.034,-0.019l-0.001,-0c0.025,-0.015 0.05,-0.03 0.076,-0.046c0.219,0.808 0.007,1.52 -0.508,2.081Zm11.412,-3.847c-0.595,0.003 -1.11,0.146 -1.542,0.359c-0.158,-0.316 -0.318,-0.593 -0.345,-0.799c-0.032,-0.241 -0.068,-0.385 -0.03,-0.671c0.038,-0.287 0.204,-0.694 0.201,-0.724c-0.002,-0.03 -0.037,-0.176 -0.38,-0.179c-0.343,-0.002 -0.637,0.066 -0.671,0.157c-0.035,0.09 -0.101,0.294 -0.142,0.507c-0.06,0.311 -0.685,1.421 -1.04,2.001c-0.116,-0.226 -0.215,-0.426 -0.235,-0.584c-0.032,-0.241 -0.068,-0.384 -0.03,-0.671c0.038,-0.287 0.204,-0.693 0.201,-0.724c-0.002,-0.03 -0.037,-0.176 -0.38,-0.179c-0.343,-0.002 -0.637,0.066 -0.671,0.157c-0.035,0.09 -0.072,0.302 -0.142,0.507c-0.071,0.205 -0.901,2.056 -1.119,2.536c-0.111,0.244 -0.207,0.441 -0.276,0.575c0,-0 0,-0.001 0,-0.001c0,0 -0.004,0.009 -0.011,0.024c-0.059,0.114 -0.093,0.178 -0.093,0.178c-0,-0 -0,0 0.001,0.002c-0.047,0.084 -0.096,0.162 -0.121,0.162c-0.017,-0 -0.051,-0.224 0.008,-0.53c0.123,-0.642 0.42,-1.644 0.417,-1.678c-0.001,-0.018 0.056,-0.192 -0.194,-0.283c-0.242,-0.089 -0.328,0.059 -0.35,0.059c-0.021,0.001 -0.037,0.052 -0.037,0.052c-0,0 0.269,-1.126 -0.515,-1.126c-0.49,0 -1.17,0.537 -1.505,1.023c-0.211,0.115 -0.663,0.362 -1.143,0.626c-0.184,0.101 -0.372,0.204 -0.55,0.302c-0.012,-0.013 -0.024,-0.026 -0.037,-0.04c-0.951,-1.015 -2.709,-1.732 -2.635,-3.097c0.027,-0.496 0.2,-1.802 3.379,-3.386c2.604,-1.298 4.689,-0.94 5.049,-0.149c0.515,1.131 -1.114,3.232 -3.818,3.535c-1.031,0.116 -1.574,-0.284 -1.708,-0.432c-0.143,-0.157 -0.164,-0.164 -0.217,-0.135c-0.086,0.048 -0.031,0.187 0,0.269c0.081,0.21 0.412,0.583 0.977,0.768c0.497,0.163 1.707,0.253 3.17,-0.313c1.639,-0.634 2.918,-2.397 2.543,-3.871c-0.383,-1.499 -2.868,-1.992 -5.22,-1.156c-1.4,0.497 -2.916,1.278 -4.006,2.297c-1.295,1.212 -1.502,2.267 -1.417,2.708c0.303,1.566 2.461,2.585 3.326,3.341c-0.043,0.024 -0.083,0.046 -0.12,0.066c-0.433,0.214 -2.078,1.075 -2.49,1.985c-0.467,1.032 0.075,1.772 0.433,1.872c1.11,0.309 2.249,-0.247 2.861,-1.16c0.612,-0.913 0.537,-2.101 0.256,-2.644c-0.003,-0.006 -0.007,-0.013 -0.01,-0.02c0.111,-0.066 0.226,-0.133 0.339,-0.2c0.22,-0.129 0.437,-0.25 0.625,-0.352c-0.106,0.288 -0.183,0.633 -0.223,1.132c-0.047,0.585 0.193,1.343 0.508,1.641c0.138,0.131 0.304,0.134 0.41,0.134c0.365,-0 0.532,-0.304 0.716,-0.664c0.225,-0.441 0.425,-0.955 0.425,-0.955c-0,0 -0.251,1.388 0.433,1.388c0.249,-0 0.499,-0.323 0.611,-0.488c-0,0.002 0,0.003 0,0.003c0,-0 0.007,-0.011 0.019,-0.032c0.026,-0.04 0.041,-0.065 0.041,-0.065c-0,-0 0,-0.003 0.001,-0.007c0.1,-0.174 0.322,-0.57 0.655,-1.224c0.43,-0.844 0.843,-1.902 0.843,-1.902c-0,0 0.038,0.259 0.164,0.686c0.074,0.252 0.231,0.53 0.355,0.797c-0.1,0.138 -0.161,0.218 -0.161,0.218c-0,-0 0.001,0.001 0.002,0.004c-0.08,0.106 -0.169,0.22 -0.263,0.331c-0.34,0.405 -0.744,0.867 -0.798,1c-0.064,0.157 -0.049,0.272 0.074,0.365c0.091,0.068 0.251,0.079 0.418,0.067c0.305,-0.02 0.52,-0.096 0.626,-0.142c0.165,-0.058 0.357,-0.15 0.538,-0.283c0.333,-0.245 0.534,-0.595 0.514,-1.059c-0.01,-0.255 -0.092,-0.509 -0.195,-0.748c0.03,-0.044 0.06,-0.087 0.091,-0.132c0.525,-0.767 0.932,-1.611 0.932,-1.611c0,0 0.039,0.259 0.164,0.686c0.064,0.217 0.189,0.453 0.302,0.684c-0.493,0.402 -0.8,0.868 -0.906,1.173c-0.196,0.566 -0.042,0.822 0.246,0.881c0.131,0.026 0.316,-0.034 0.455,-0.093c0.173,-0.057 0.381,-0.153 0.575,-0.295c0.333,-0.245 0.653,-0.588 0.634,-1.052c-0.009,-0.211 -0.067,-0.421 -0.144,-0.622c0.418,-0.175 0.96,-0.271 1.65,-0.191c1.481,0.173 1.771,1.097 1.716,1.484c-0.056,0.387 -0.366,0.6 -0.47,0.664c-0.104,0.064 -0.136,0.087 -0.127,0.134c0.013,0.07 0.061,0.067 0.149,0.052c0.122,-0.02 0.778,-0.314 0.806,-1.029c0.035,-0.906 -0.833,-1.902 -2.372,-1.894Z" style="fill:#818182;fill-rule:nonzero;"/>
    </g>
</svg>
