<?xml version="1.0" encoding="UTF-8" standalone="no"?>
<!DOCTYPE svg PUBLIC "-//W3C//DTD SVG 1.1//EN" "http://www.w3.org/Graphics/SVG/1.1/DTD/svg11.dtd">
<svg width="100%" height="100%" viewBox="0 0 54 44" version="1.1" xmlns="http://www.w3.org/2000/svg" xmlns:xlink="http://www.w3.org/1999/xlink" xml:space="preserve" xmlns:serif="http://www.serif.com/" style="fill-rule:evenodd;clip-rule:evenodd;stroke-linejoin:round;stroke-miterlimit:2;">
    <g>
        <g>
            <path d="M44.051,0.26l-10.924,-0l0,10.923l10.924,0l-0,-10.923Zm-23.178,-0.081l-10.924,-0l0,10.923l10.924,0l-0,-10.923Z" style="fill:rgb(18,18,21);fill-rule:nonzero;"/>
            <path d="M9.87,18.011l-8.941,-0l-0,0.5c-0,13.819 11.618,25.123 26.071,25.123c14.453,0 26.071,-11.304 26.071,-25.123l0,-0.5l-8.941,-0l-0,0.5c-0,8.994 -7.723,16.182 -17.13,16.182c-9.407,-0 -17.13,-7.188 -17.13,-16.182l0,-0.5Z" style="fill:rgb(18,18,21);"/>
        </g>
    </g>
</svg>
